<svg viewBox="0 0 64 64" xmlns="http://www.w3.org/2000/svg">
  <path d="M49 6a.987.987 0 00-.817-.978l-16-3.005a1.034 1.034 0 00-.368 0l-16 3.006A.984.984 0 0015 6v3H2v42h18v2.18L5.835 56.014C4.189 56.288 2 57 2 60v1a1 1 0 001.165.986L21.083 59h21.834l17.918 2.986A.919.919 0 0061 62a1 1 0 001-1v-1c0-2.991-2.175-3.708-3.819-3.984L44 53.18V51h18V9H49zM32 4.018L43.318 6.14 32 8.969 20.682 6.14zm15 3.263v16.026l-14 5.25V10.781zm-30 0l14 3.5v17.776l-14-5.25zm-1.351 17.656l16 6A1.936 1.936 0 0032 31a1.936 1.936 0 00.351-.063l16-6A1 1 0 0049 24v-9h7v30H8V15h7v9a1 1 0 00.649.937zM57.8 57.98l.031.006c1.739.29 2.124.83 2.162 1.833l-16.832-2.8A.919.919 0 0043 57H21a.919.919 0 00-.165.014L4 59.819c.038-1 .424-1.543 2.193-1.839L21.1 55h21.8zM22 53v-2h20v2zm38-42v38H4V11h11v2H6v34h52V13h-9v-2z"/>
  <path d="M16.439 33.172A1 1 0 0016 34v6a1 1 0 00.628.929l5 2A1.981 1.981 0 0022 43a1.981 1.981 0 00.372-.071l5-2A1 1 0 0028 40v-6a1 1 0 00-.439-.828 1.82 1.82 0 00-.189-.1l-5-2a1.017 1.017 0 00-.744 0l-5 2a1.932 1.932 0 00-.189.1zM26 39.323l-3 1.2v-3.846l3-1.2zm-4-6.246l2.307.923-2.307.923L19.693 34zm-4 2.4l3 1.2v3.846l-3-1.2zM39.553 36.9l4 2a1 1 0 00.894 0l4-2A1 1 0 0049 36v-4a1 1 0 00-.474-.851 1.923 1.923 0 00-.079-.044l-4-2a1 1 0 00-.894 0l-4 2s-.053.028-.079.044A1 1 0 0039 32v4a1 1 0 00.553.9zM47 35.382l-2 1v-1.764l2-1zm-3-4.264l1.764.882-1.764.882L42.236 32zm-3 2.5l2 1v1.764l-2-1zM52 41h-4v2h6v-8h-2zM53 26.677V21h-2v4.323l-4.372 1.748.744 1.858zM13 17h-2v9.659l7.606 3.26.788-1.838L13 25.341zM31 34h2v2h-2zM12 40h2v2h-2zM34 38h2v2h-2z"/>
</svg>
